<svg xmlns="http://www.w3.org/2000/svg" width="297" height="420" viewBox="0 0 297 420" font-family="Arial, Helvetica, sans-serif"><rect x="0" y="0" width="297" height="420" fill="#ffffff"/><text x="10" y="15" font-size="4.5" fill="#111">SCALE 1:3 — PAPER SIZE: A3</text><text x="10" y="21" font-size="3.5" fill="#555">AMR — Pump Station Control Panel  ·  CP-01  ·  Rev A</text><g transform="translate(10 76.9438202247191) scale(0.3112359550561798)"><rect x="0" y="0" width="800" height="900" fill="#fafafa" stroke="#000" stroke-width="0.8" data-layer="PLATE"/><g data-id="WW_L" data-layer="DUCT"><rect x="0" y="0" width="60" height="900" fill="#eef3ff" stroke="#3559b3" stroke-width="0.4"/><text x="30" y="450" font-size="36" text-anchor="middle" dominant-baseline="central" transform="rotate(90 30 450)">WIRE DUCT 60X60 MM</text></g><g data-id="WW_R" data-layer="DUCT"><rect x="740" y="0" width="60" height="900" fill="#eef3ff" stroke="#3559b3" stroke-width="0.4"/><text x="770" y="450" font-size="36" text-anchor="middle" dominant-baseline="central" transform="rotate(90 770 450)">WIRE DUCT 60X60 MM</text></g><g data-id="WW_top" data-layer="DUCT"><rect x="60" y="20" width="680" height="40" fill="#eef3ff" stroke="#3559b3" stroke-width="0.4"/><text x="400" y="40" font-size="24" text-anchor="middle" dominant-baseline="central">WIRE DUCT 40X60 MM</text></g><g data-id="WW_1" data-layer="DUCT"><rect x="60" y="200" width="680" height="40" fill="#eef3ff" stroke="#3559b3" stroke-width="0.4"/><text x="400" y="220" font-size="24" text-anchor="middle" dominant-baseline="central">WIRE DUCT 40X60 MM</text></g><g data-id="WW_2" data-layer="DUCT"><rect x="60" y="380" width="680" height="40" fill="#eef3ff" stroke="#3559b3" stroke-width="0.4"/><text x="400" y="400" font-size="24" text-anchor="middle" dominant-baseline="central">WIRE DUCT 40X60 MM</text></g><g data-id="WW_3" data-layer="DUCT"><rect x="60" y="540" width="680" height="40" fill="#eef3ff" stroke="#3559b3" stroke-width="0.4"/><text x="400" y="560" font-size="24" text-anchor="middle" dominant-baseline="central">WIRE DUCT 40X60 MM</text></g><g data-id="WW_4" data-layer="DUCT"><rect x="60" y="700" width="680" height="40" fill="#eef3ff" stroke="#3559b3" stroke-width="0.4"/><text x="400" y="720" font-size="24" text-anchor="middle" dominant-baseline="central">WIRE DUCT 40X60 MM</text></g><g data-id="g_mq0qrkc1_14" data-layer="EQUIP"><rect x="70" y="420" width="15.5" height="80" fill="#fff" stroke="#222" stroke-width="0.3"/><rect x="85.6" y="420" width="15.5" height="80" fill="#fff" stroke="#222" stroke-width="0.3"/><rect x="101.19999999999999" y="420" width="15.5" height="80" fill="#fff" stroke="#222" stroke-width="0.3"/><rect x="116.79999999999998" y="420" width="15.5" height="80" fill="#fff" stroke="#222" stroke-width="0.3"/><rect x="132.39999999999998" y="420" width="15.5" height="80" fill="#fff" stroke="#222" stroke-width="0.3"/><rect x="147.99999999999997" y="420" width="15.5" height="80" fill="#fff" stroke="#222" stroke-width="0.3"/><rect x="163.59999999999997" y="420" width="15.5" height="80" fill="#fff" stroke="#222" stroke-width="0.3"/><rect x="179.19999999999996" y="420" width="15.5" height="80" fill="#fff" stroke="#222" stroke-width="0.3"/><rect x="194.79999999999995" y="420" width="15.5" height="80" fill="#fff" stroke="#222" stroke-width="0.3"/><rect x="210.39999999999995" y="420" width="15.5" height="80" fill="#fff" stroke="#222" stroke-width="0.3"/><rect x="225.99999999999994" y="420" width="15.5" height="80" fill="#fff" stroke="#222" stroke-width="0.3"/><rect x="241.59999999999994" y="420" width="15.5" height="80" fill="#fff" stroke="#222" stroke-width="0.3"/><rect x="257.19999999999993" y="420" width="15.5" height="80" fill="#fff" stroke="#222" stroke-width="0.3"/><rect x="272.79999999999995" y="420" width="15.5" height="80" fill="#fff" stroke="#222" stroke-width="0.3"/><rect x="288.4" y="420" width="15.5" height="80" fill="#fff" stroke="#222" stroke-width="0.3"/><rect x="304" y="420" width="15.5" height="80" fill="#fff" stroke="#222" stroke-width="0.3"/><rect x="319.6" y="420" width="15.5" height="80" fill="#fff" stroke="#222" stroke-width="0.3"/><rect x="335.20000000000005" y="420" width="15.5" height="80" fill="#fff" stroke="#222" stroke-width="0.3"/><rect x="350.80000000000007" y="420" width="15.5" height="80" fill="#fff" stroke="#222" stroke-width="0.3"/><rect x="366.4000000000001" y="420" width="15.5" height="80" fill="#fff" stroke="#222" stroke-width="0.3"/><rect x="382.0000000000001" y="420" width="15.5" height="80" fill="#fff" stroke="#222" stroke-width="0.3"/><rect x="397.60000000000014" y="420" width="15.5" height="80" fill="#fff" stroke="#222" stroke-width="0.3"/></g><g data-id="g_mq0qrkc1_15" data-layer="EQUIP"><rect x="70" y="590" width="5.2" height="50" fill="#fff" stroke="#222" stroke-width="0.3"/><rect x="75.3" y="590" width="5.2" height="50" fill="#fff" stroke="#222" stroke-width="0.3"/><rect x="80.6" y="590" width="5.2" height="50" fill="#fff" stroke="#222" stroke-width="0.3"/><rect x="85.89999999999999" y="590" width="5.2" height="50" fill="#fff" stroke="#222" stroke-width="0.3"/><rect x="91.19999999999999" y="590" width="5.2" height="50" fill="#fff" stroke="#222" stroke-width="0.3"/><rect x="96.49999999999999" y="590" width="5.2" height="50" fill="#fff" stroke="#222" stroke-width="0.3"/><rect x="101.79999999999998" y="590" width="5.2" height="50" fill="#fff" stroke="#222" stroke-width="0.3"/><rect x="107.09999999999998" y="590" width="5.2" height="50" fill="#fff" stroke="#222" stroke-width="0.3"/><rect x="112.39999999999998" y="590" width="5.2" height="50" fill="#fff" stroke="#222" stroke-width="0.3"/><rect x="117.69999999999997" y="590" width="5.2" height="50" fill="#fff" stroke="#222" stroke-width="0.3"/><rect x="122.99999999999997" y="590" width="5.2" height="50" fill="#fff" stroke="#222" stroke-width="0.3"/><rect x="128.29999999999998" y="590" width="5.2" height="50" fill="#fff" stroke="#222" stroke-width="0.3"/><rect x="133.6" y="590" width="5.2" height="50" fill="#fff" stroke="#222" stroke-width="0.3"/><rect x="138.9" y="590" width="5.2" height="50" fill="#fff" stroke="#222" stroke-width="0.3"/><rect x="144.20000000000002" y="590" width="5.2" height="50" fill="#fff" stroke="#222" stroke-width="0.3"/><rect x="149.50000000000003" y="590" width="5.2" height="50" fill="#fff" stroke="#222" stroke-width="0.3"/><rect x="154.80000000000004" y="590" width="5.2" height="50" fill="#fff" stroke="#222" stroke-width="0.3"/><rect x="160.10000000000005" y="590" width="5.2" height="50" fill="#fff" stroke="#222" stroke-width="0.3"/><rect x="165.40000000000006" y="590" width="5.2" height="50" fill="#fff" stroke="#222" stroke-width="0.3"/><rect x="170.70000000000007" y="590" width="5.2" height="50" fill="#fff" stroke="#222" stroke-width="0.3"/><rect x="176.00000000000009" y="590" width="5.2" height="50" fill="#fff" stroke="#222" stroke-width="0.3"/><rect x="181.3000000000001" y="590" width="5.2" height="50" fill="#fff" stroke="#222" stroke-width="0.3"/><rect x="186.6000000000001" y="590" width="5.2" height="50" fill="#fff" stroke="#222" stroke-width="0.3"/><rect x="191.90000000000012" y="590" width="5.2" height="50" fill="#fff" stroke="#222" stroke-width="0.3"/><rect x="197.20000000000013" y="590" width="5.2" height="50" fill="#fff" stroke="#222" stroke-width="0.3"/><rect x="202.50000000000014" y="590" width="5.2" height="50" fill="#fff" stroke="#222" stroke-width="0.3"/><rect x="207.80000000000015" y="590" width="5.2" height="50" fill="#fff" stroke="#222" stroke-width="0.3"/><rect x="213.10000000000016" y="590" width="5.2" height="50" fill="#fff" stroke="#222" stroke-width="0.3"/><rect x="218.40000000000018" y="590" width="5.2" height="50" fill="#fff" stroke="#222" stroke-width="0.3"/><rect x="223.7000000000002" y="590" width="5.2" height="50" fill="#fff" stroke="#222" stroke-width="0.3"/><rect x="229.0000000000002" y="590" width="5.2" height="50" fill="#fff" stroke="#222" stroke-width="0.3"/><rect x="234.3000000000002" y="590" width="5.2" height="50" fill="#fff" stroke="#222" stroke-width="0.3"/><rect x="239.60000000000022" y="590" width="5.2" height="50" fill="#fff" stroke="#222" stroke-width="0.3"/><rect x="244.90000000000023" y="590" width="5.2" height="50" fill="#fff" stroke="#222" stroke-width="0.3"/><rect x="250.20000000000024" y="590" width="5.2" height="50" fill="#fff" stroke="#222" stroke-width="0.3"/><rect x="255.50000000000026" y="590" width="5.2" height="50" fill="#fff" stroke="#222" stroke-width="0.3"/><rect x="260.80000000000024" y="590" width="5.2" height="50" fill="#fff" stroke="#222" stroke-width="0.3"/><rect x="266.10000000000025" y="590" width="5.2" height="50" fill="#fff" stroke="#222" stroke-width="0.3"/><rect x="271.40000000000026" y="590" width="5.2" height="50" fill="#fff" stroke="#222" stroke-width="0.3"/><rect x="276.7000000000003" y="590" width="5.2" height="50" fill="#fff" stroke="#222" stroke-width="0.3"/><rect x="282.0000000000003" y="590" width="5.2" height="50" fill="#fff" stroke="#222" stroke-width="0.3"/><rect x="287.3000000000003" y="590" width="5.2" height="50" fill="#fff" stroke="#222" stroke-width="0.3"/><rect x="292.6000000000003" y="590" width="5.2" height="50" fill="#fff" stroke="#222" stroke-width="0.3"/><rect x="297.9000000000003" y="590" width="5.2" height="50" fill="#fff" stroke="#222" stroke-width="0.3"/><rect x="303.20000000000033" y="590" width="5.2" height="50" fill="#fff" stroke="#222" stroke-width="0.3"/><rect x="308.50000000000034" y="590" width="5.2" height="50" fill="#fff" stroke="#222" stroke-width="0.3"/><rect x="313.80000000000035" y="590" width="5.2" height="50" fill="#fff" stroke="#222" stroke-width="0.3"/><rect x="319.10000000000036" y="590" width="5.2" height="50" fill="#fff" stroke="#222" stroke-width="0.3"/><rect x="324.4000000000004" y="590" width="5.2" height="50" fill="#fff" stroke="#222" stroke-width="0.3"/><rect x="329.7000000000004" y="590" width="5.2" height="50" fill="#fff" stroke="#222" stroke-width="0.3"/><rect x="335.0000000000004" y="590" width="5.2" height="50" fill="#fff" stroke="#222" stroke-width="0.3"/><rect x="340.3000000000004" y="590" width="5.2" height="50" fill="#fff" stroke="#222" stroke-width="0.3"/><rect x="345.6000000000004" y="590" width="5.2" height="50" fill="#fff" stroke="#222" stroke-width="0.3"/><rect x="350.90000000000043" y="590" width="5.2" height="50" fill="#fff" stroke="#222" stroke-width="0.3"/><rect x="356.20000000000044" y="590" width="5.2" height="50" fill="#fff" stroke="#222" stroke-width="0.3"/><rect x="361.50000000000045" y="590" width="5.2" height="50" fill="#fff" stroke="#222" stroke-width="0.3"/><rect x="366.80000000000047" y="590" width="5.2" height="50" fill="#fff" stroke="#222" stroke-width="0.3"/><rect x="372.1000000000005" y="590" width="5.2" height="50" fill="#fff" stroke="#222" stroke-width="0.3"/><rect x="377.4000000000005" y="590" width="5.2" height="50" fill="#fff" stroke="#222" stroke-width="0.3"/><rect x="382.7000000000005" y="590" width="5.2" height="50" fill="#fff" stroke="#222" stroke-width="0.3"/></g><g data-id="e_mq0qrkc0_1" data-layer="EQUIP"><rect x="70" y="80" width="54" height="85" fill="#fff" stroke="#222" stroke-width="0.4"/><text x="70" y="77.5" font-size="10" text-anchor="start">Q1</text></g><g data-id="e_mq0qrkc0_2" data-layer="EQUIP"><rect x="124.1" y="80" width="36" height="85" fill="#fff" stroke="#222" stroke-width="0.4"/><text x="124.1" y="77.5" font-size="10" text-anchor="start">Q2</text></g><g data-id="e_mq0qrkc0_3" data-layer="EQUIP"><rect x="160.2" y="80" width="36" height="85" fill="#fff" stroke="#222" stroke-width="0.4"/><text x="160.2" y="77.5" font-size="10" text-anchor="start">F1</text></g><g data-id="e_mq0qrkc0_4" data-layer="EQUIP"><rect x="196.3" y="80" width="18" height="85" fill="#fff" stroke="#222" stroke-width="0.4"/><text x="196.3" y="77.5" font-size="10" text-anchor="start">F2</text></g><g data-id="e_mq0qrkc0_5" data-layer="EQUIP"><rect x="214.4" y="80" width="18" height="70" fill="#fff" stroke="#222" stroke-width="0.4"/><text x="214.4" y="77.5" font-size="10" text-anchor="start">F3</text></g><g data-id="e_mq0qrkc0_6" data-layer="EQUIP"><rect x="232.5" y="80" width="40" height="110" fill="#fff" stroke="#222" stroke-width="0.4"/><text x="232.5" y="77.5" font-size="10" text-anchor="start">PS1</text></g><g data-id="e_mq0qrkc0_7" data-layer="EQUIP"><rect x="272.6" y="80" width="45" height="50" fill="#fff" stroke="#222" stroke-width="0.4"/><text x="272.6" y="77.5" font-size="10" text-anchor="start">TS1</text></g><g data-id="e_mq0qrkc0_8" data-layer="EQUIP"><rect x="70" y="250" width="70.19" height="103.29" fill="#fff" stroke="#222" stroke-width="0.4"/><text x="70" y="247.5" font-size="10" text-anchor="start">PLC1</text></g><g data-id="e_mq0qrkc0_9" data-layer="EQUIP"><rect x="140.29" y="250" width="30" height="90" fill="#fff" stroke="#222" stroke-width="0.4"/><text x="140.29" y="247.5" font-size="10" text-anchor="start">AI1</text></g><g data-id="e_mq0qrkc0_10" data-layer="EQUIP"><rect x="170.39" y="250" width="30" height="90" fill="#fff" stroke="#222" stroke-width="0.4"/><text x="170.39" y="247.5" font-size="10" text-anchor="start">DI1</text></g><g data-id="e_mq0qrkc1_11" data-layer="EQUIP"><rect x="200.49" y="250" width="30" height="90" fill="#fff" stroke="#222" stroke-width="0.4"/><text x="200.49" y="247.5" font-size="10" text-anchor="start">IO1</text></g><g data-id="e_mq0qrkc1_12" data-layer="EQUIP"><rect x="230.59" y="250" width="45" height="90" fill="#fff" stroke="#222" stroke-width="0.4"/><text x="230.59" y="247.5" font-size="10" text-anchor="start">MDM</text></g><g data-id="e_mq0qrkc1_13" data-layer="EQUIP"><rect x="275.69" y="250" width="60" height="90" fill="#fff" stroke="#222" stroke-width="0.4"/><text x="275.69" y="247.5" font-size="10" text-anchor="start">SW1</text></g><g data-id="e_mq0qrkc1_16" data-layer="EQUIP"><rect x="480" y="590" width="8" height="50" fill="#fff" stroke="#222" stroke-width="0.4"/><text x="487.5" y="587.5" font-size="10" text-anchor="start" transform="rotate(-90 487.5 587.5)">FU1</text></g><g data-id="e_mq0qrkc1_17" data-layer="EQUIP"><rect x="488.1" y="590" width="8" height="50" fill="#fff" stroke="#222" stroke-width="0.4"/><text x="495.6" y="587.5" font-size="10" text-anchor="start" transform="rotate(-90 495.6 587.5)">FU2</text></g><g data-id="e_mq0qrkc1_18" data-layer="EQUIP"><rect x="496.2" y="590" width="8" height="50" fill="#fff" stroke="#222" stroke-width="0.4"/><text x="503.7" y="587.5" font-size="10" text-anchor="start" transform="rotate(-90 503.7 587.5)">FU3</text></g><g data-id="e_mq0qrkc1_19" data-layer="EQUIP"><rect x="300" y="770" width="120" height="15" fill="#fff" stroke="#222" stroke-width="0.4"/><text x="300" y="767.5" font-size="10" text-anchor="start">PE</text></g><g data-layer="TEXT"><line x1="800" y1="60" x2="848" y2="60" stroke="#333" stroke-width="0.4"/><line x1="800" y1="200" x2="848" y2="200" stroke="#333" stroke-width="0.4"/><line x1="840" y1="60" x2="840" y2="200" stroke="#333" stroke-width="0.4"/><path d="M840 60 L838 67 L842 67 Z" fill="#333"/><path d="M840 200 L838 193 L842 193 Z" fill="#333"/><text x="852" y="130" font-size="16" dominant-baseline="central">140</text></g><g data-layer="TEXT"><line x1="800" y1="240" x2="848" y2="240" stroke="#333" stroke-width="0.4"/><line x1="800" y1="380" x2="848" y2="380" stroke="#333" stroke-width="0.4"/><line x1="840" y1="240" x2="840" y2="380" stroke="#333" stroke-width="0.4"/><path d="M840 240 L838 247 L842 247 Z" fill="#333"/><path d="M840 380 L838 373 L842 373 Z" fill="#333"/><text x="852" y="310" font-size="16" dominant-baseline="central">140</text></g><g data-layer="TEXT"><line x1="800" y1="420" x2="848" y2="420" stroke="#333" stroke-width="0.4"/><line x1="800" y1="540" x2="848" y2="540" stroke="#333" stroke-width="0.4"/><line x1="840" y1="420" x2="840" y2="540" stroke="#333" stroke-width="0.4"/><path d="M840 420 L838 427 L842 427 Z" fill="#333"/><path d="M840 540 L838 533 L842 533 Z" fill="#333"/><text x="852" y="480" font-size="16" dominant-baseline="central">120</text></g><g data-layer="TEXT"><line x1="800" y1="580" x2="848" y2="580" stroke="#333" stroke-width="0.4"/><line x1="800" y1="700" x2="848" y2="700" stroke="#333" stroke-width="0.4"/><line x1="840" y1="580" x2="840" y2="700" stroke="#333" stroke-width="0.4"/><path d="M840 580 L838 587 L842 587 Z" fill="#333"/><path d="M840 700 L838 693 L842 693 Z" fill="#333"/><text x="852" y="640" font-size="16" dominant-baseline="central">120</text></g></g></svg>